<svg width="24" height="24" viewBox="0 0 24 24" fill="none" xmlns="http://www.w3.org/2000/svg">
<circle cx="12" cy="8" r="4" fill="#97989D"/>
<path d="M12.1087 12.5418C12.8308 12.7232 15.0126 13.2966 16.3649 13.9099C17.4247 14.3906 18.3514 15.2444 18.9489 15.8899C19.1057 16.0593 19.0866 16.3523 18.834 16.513L16.3318 18.1053C16.322 18.1115 16.3138 18.1163 16.3067 18.1201L16.5415 18.5615L16.3067 18.1201C16.1668 18.1944 15.4962 18.5442 14.6463 18.8741C13.7832 19.2091 12.7941 19.5 12 19.5C11.2058 19.5 10.2168 19.2091 9.35372 18.8741C8.50381 18.5442 7.83313 18.1945 7.69329 18.1201C7.68617 18.1163 7.67796 18.1115 7.6682 18.1053C7.6682 18.1053 7.6682 18.1053 7.6682 18.1053L5.166 16.513C4.91342 16.3523 4.89432 16.0593 5.05111 15.8899C5.64853 15.2444 6.57521 14.3906 7.63507 13.9099C8.98736 13.2966 11.1692 12.7232 11.8913 12.5418L11.7695 12.0569L11.8913 12.5418C11.9637 12.5236 12.0362 12.5236 12.1087 12.5418Z" fill="#F6F4F0" stroke="#F6F4F0"/>
</svg>
